<svg width="37" height="36" viewBox="0 0 37 36" fill="none" xmlns="http://www.w3.org/2000/svg">
<path d="M16.7344 35V19.6484H3.86719V35H0.84375V1.39062H3.86719V16.7656H16.7344V1.39062H19.7578V35H16.7344ZM36.0506 27.2188C36.0506 28.3594 35.8162 29.4297 35.3475 30.4297C34.8944 31.4297 34.2772 32.3047 33.4959 33.0547C32.7303 33.8047 31.8319 34.3984 30.8006 34.8359C29.785 35.2578 28.7069 35.4688 27.5662 35.4688H25.1522C24.0116 35.4688 22.9256 35.2578 21.8944 34.8359C20.8787 34.3984 19.9803 33.8047 19.1991 33.0547C18.4334 32.3047 17.8162 31.4297 17.3475 30.4297C16.8944 29.4297 16.6678 28.3594 16.6678 27.2188V25.8828L19.6912 25.3906V27.2188C19.6912 27.9688 19.8397 28.6719 20.1366 29.3281C20.4491 29.9688 20.8631 30.5391 21.3787 31.0391C21.8944 31.5234 22.4881 31.9062 23.16 32.1875C23.8475 32.4688 24.5662 32.6094 25.3162 32.6094H27.4256C28.1756 32.6094 28.8866 32.4688 29.5584 32.1875C30.2303 31.9062 30.8241 31.5234 31.3397 31.0391C31.8553 30.5391 32.2616 29.9688 32.5584 29.3281C32.8709 28.6719 33.0272 27.9688 33.0272 27.2188V26.2109C33.0272 25.0547 32.8006 24.0938 32.3475 23.3281C31.8944 22.5625 31.2928 21.9141 30.5428 21.3828C29.7928 20.8359 28.9412 20.375 27.9881 20C27.0506 19.625 26.0819 19.25 25.0819 18.875C24.0819 18.5 23.1053 18.0859 22.1522 17.6328C21.2147 17.1797 20.3709 16.6172 19.6209 15.9453C18.8709 15.2578 18.2694 14.4219 17.8162 13.4375C17.3631 12.4531 17.1366 11.2422 17.1366 9.80469V9.17188C17.1366 8.03125 17.3475 6.96094 17.7694 5.96094C18.2069 4.96094 18.8006 4.08594 19.5506 3.33594C20.3006 2.58594 21.1756 2 22.1756 1.57812C23.1912 1.14062 24.2694 0.921875 25.41 0.921875H27.5662C28.7069 0.921875 29.7772 1.14062 30.7772 1.57812C31.7772 2 32.6522 2.58594 33.4022 3.33594C34.1522 4.08594 34.7381 4.96094 35.16 5.96094C35.5975 6.96094 35.8162 8.03125 35.8162 9.17188V10.0391L32.7928 10.5312V9.17188C32.7928 8.42188 32.6522 7.72656 32.3709 7.08594C32.0897 6.42969 31.7069 5.85938 31.2225 5.375C30.7381 4.89062 30.1678 4.50781 29.5116 4.22656C28.8709 3.94531 28.1756 3.80469 27.4256 3.80469H25.5506C24.8006 3.80469 24.0975 3.94531 23.4412 4.22656C22.8006 4.50781 22.2303 4.89062 21.7303 5.375C21.2459 5.85938 20.8631 6.42969 20.5819 7.08594C20.3006 7.72656 20.16 8.42188 20.16 9.17188V9.80469C20.16 10.8828 20.3866 11.7891 20.8397 12.5234C21.2928 13.2578 21.8944 13.8906 22.6444 14.4219C23.3944 14.9375 24.2381 15.3906 25.1756 15.7812C26.1287 16.1562 27.1053 16.5469 28.1053 16.9531C29.1053 17.3438 30.0741 17.7812 31.0116 18.2656C31.9647 18.7344 32.8162 19.3203 33.5662 20.0234C34.3162 20.7109 34.9178 21.5547 35.3709 22.5547C35.8241 23.5547 36.0506 24.7734 36.0506 26.2109V27.2188Z" fill="white"/>
</svg>
